<svg width="35" height="60" viewBox="0 0 35 60" fill="none" xmlns="http://www.w3.org/2000/svg">
<path d="M0.000133951 54.7729C0.000133996 54.2568 0.200533 53.8003 0.601334 53.4033L24.2286 30L0.601338 6.59669C0.200537 6.19969 0.000138278 5.74314 0.000138324 5.22704C0.000138369 4.71093 0.200537 4.25438 0.601339 3.85738L3.60735 0.879861C4.00815 0.482859 4.46908 0.284356 4.99012 0.284356C5.51116 0.284356 5.97208 0.482859 6.37288 0.879861L34.3889 28.6303C34.7897 29.0273 34.9901 29.4839 34.9901 30C34.9901 30.5161 34.7897 30.9726 34.3889 31.3696L6.37288 59.1201C5.97208 59.5171 5.51115 59.7156 4.99011 59.7156C4.46907 59.7156 4.00815 59.5171 3.60735 59.1201L0.601334 56.1426C0.200532 55.7456 0.000133905 55.289 0.000133951 54.7729Z" fill="#02B7A8"/>
</svg>
