<svg width="35" height="60" viewBox="0 0 35 60" fill="none" xmlns="http://www.w3.org/2000/svg">
<path d="M34.99 5.22704C34.99 5.74314 34.7896 6.1997 34.3888 6.5967L10.7615 30L34.3888 53.4033C34.7896 53.8003 34.99 54.2568 34.99 54.7729C34.99 55.289 34.7896 55.7456 34.3888 56.1426L31.3828 59.1201C30.982 59.5171 30.521 59.7156 30 59.7156C29.479 59.7156 29.018 59.5171 28.6172 59.1201L0.601202 31.3696C0.200401 30.9726 0 30.5161 0 30C0 29.4839 0.200401 29.0273 0.601202 28.6303L28.6172 0.879866C29.018 0.482864 29.479 0.284363 30 0.284363C30.521 0.284363 30.982 0.482864 31.3828 0.879866L34.3888 3.85738C34.7896 4.25439 34.99 4.71094 34.99 5.22704Z" fill="#02B7A8"/>
</svg>
