<svg width="30" height="34" viewBox="0 0 30 34" fill="none" xmlns="http://www.w3.org/2000/svg">
<path d="M30 6.375C30 5.2016 29.0404 4.25 27.8571 4.25H2.14286C0.95759 4.25 0 5.2016 0 6.375C0 7.55039 0.95759 8.5 2.14286 8.5H27.8571C29.0404 8.5 30 7.55039 30 6.375ZM30 17C30 15.8246 29.0404 14.875 27.8571 14.875H2.14286C0.95759 14.875 0 15.8246 0 17C0 18.1754 0.95759 19.125 2.14286 19.125H27.8571C29.0404 19.125 30 18.1754 30 17ZM2.14286 29.75H27.8571C29.0404 29.75 30 28.8004 30 27.625C30 26.4496 29.0404 25.5 27.8571 25.5H2.14286C0.95759 25.5 0 26.4496 0 27.625C0 28.8004 0.95759 29.75 2.14286 29.75Z" fill="#003399"/>
</svg>
