<svg width="10" height="12" viewBox="0 0 10 12" fill="none" xmlns="http://www.w3.org/2000/svg">
<path d="M5 11.6073C5.78839 11.6073 6.4279 10.9578 6.4279 10.1564H3.5721C3.5721 10.9578 4.21161 11.6073 5 11.6073ZM9.8078 8.21329C9.37655 7.74265 8.56963 7.03465 8.56963 4.71546C8.56963 2.95396 7.35356 1.54386 5.71384 1.19791V0.725456C5.71384 0.324868 5.3942 0 5 0C4.6058 0 4.28616 0.324868 4.28616 0.725456V1.19791C2.64644 1.54386 1.43037 2.95396 1.43037 4.71546C1.43037 7.03465 0.623451 7.74265 0.192202 8.21329C0.0582742 8.35952 -0.00110064 8.5343 1.54327e-05 8.70547C0.00247078 9.07726 0.289747 9.43092 0.716531 9.43092H9.28347C9.71025 9.43092 9.99775 9.07726 9.99998 8.70547C10.0011 8.5343 9.94173 8.35929 9.8078 8.21329Z" fill="white"/>
</svg>
