<svg width="48" height="48" viewBox="0 0 48 48" fill="none" xmlns="http://www.w3.org/2000/svg">
<rect width="48" height="48" rx="5" fill="url(#paint0_linear_31_6)"/>
<path d="M24.2502 13C37.5363 13 44.5004 22.7849 44.5004 24.3401C44.5004 25.8912 37.5363 35.6802 24.2502 35.6802C10.9661 35.6802 4.00005 25.8912 4.00005 24.3401C4.00005 22.7849 10.9661 13 24.2502 13ZM24.2502 33.0618C29.2216 33.0618 33.2514 29.1576 33.2514 24.3401C33.2514 19.5226 29.2216 15.6143 24.2502 15.6143C19.2788 15.6143 15.251 19.5226 15.251 24.3401C15.251 29.1576 19.2788 33.0618 24.2502 33.0618ZM24.2502 24.3401C25.0744 23.4349 22.9076 19.9782 24.2502 19.9782C26.7369 19.9782 28.7518 21.9323 28.7518 24.3401C28.7518 26.7478 26.7369 28.702 24.2502 28.702C21.7655 28.702 19.7486 26.7478 19.7486 24.3401C19.7486 23.2324 23.5496 25.1076 24.2502 24.3401Z" fill="white"/>
<defs>
<linearGradient id="paint0_linear_31_6" x1="6.66827e-07" y1="3" x2="47" y2="47" gradientUnits="userSpaceOnUse">
<stop stop-color="#02B7A8"/>
<stop offset="1" stop-color="#013599"/>
</linearGradient>
</defs>
</svg>
