<svg width="42" height="42" viewBox="0 0 42 42" fill="none" xmlns="http://www.w3.org/2000/svg">
<path d="M35.7094 6.10312C31.7812 2.16562 26.55 0 20.9906 0C9.51562 0 0.178125 9.3375 0.178125 20.8125C0.178125 24.4781 1.13438 28.0594 2.95312 31.2188L0 42L11.0344 39.1031C14.0719 40.7625 17.4937 41.6344 20.9813 41.6344H20.9906C32.4562 41.6344 42 32.2969 42 20.8219C42 15.2625 39.6375 10.0406 35.7094 6.10312ZM20.9906 38.1281C17.8781 38.1281 14.8312 37.2938 12.1781 35.7188L11.55 35.3438L5.00625 37.0594L6.75 30.675L6.3375 30.0188C4.60312 27.2625 3.69375 24.0844 3.69375 20.8125C3.69375 11.2781 11.4562 3.51562 21 3.51562C25.6219 3.51562 29.9625 5.31562 33.225 8.5875C36.4875 11.8594 38.4938 16.2 38.4844 20.8219C38.4844 30.3656 30.525 38.1281 20.9906 38.1281ZM30.4781 25.1719C29.9625 24.9094 27.4031 23.6531 26.925 23.4844C26.4469 23.3062 26.1 23.2219 25.7531 23.7469C25.4063 24.2719 24.4125 25.4344 24.1031 25.7906C23.8031 26.1375 23.4938 26.1844 22.9781 25.9219C19.9219 24.3937 17.9156 23.1938 15.9 19.7344C15.3656 18.8156 16.4344 18.8813 17.4281 16.8937C17.5969 16.5469 17.5125 16.2469 17.3812 15.9844C17.25 15.7219 16.2094 13.1625 15.7781 12.1219C15.3563 11.1094 14.925 11.25 14.6063 11.2313C14.3063 11.2125 13.9594 11.2125 13.6125 11.2125C13.2656 11.2125 12.7031 11.3438 12.225 11.8594C11.7469 12.3844 10.4062 13.6406 10.4062 16.2C10.4062 18.7594 12.2719 21.2344 12.525 21.5813C12.7875 21.9281 16.1906 27.1781 21.4125 29.4375C24.7125 30.8625 26.0063 30.9844 27.6562 30.7406C28.6594 30.5906 30.7312 29.4844 31.1625 28.2656C31.5938 27.0469 31.5938 26.0063 31.4625 25.7906C31.3406 25.5563 30.9938 25.425 30.4781 25.1719Z" fill="white"/>
</svg>
