<svg width="15" height="15" viewBox="0 0 15 15" fill="none" xmlns="http://www.w3.org/2000/svg">
<path d="M13.7537 6.21953C13.8527 6.14082 14 6.21445 14 6.33887V11.5312C14 12.2041 13.4541 12.75 12.7812 12.75H2.21875C1.5459 12.75 1 12.2041 1 11.5312V6.34141C1 6.21445 1.14473 6.14336 1.24629 6.22207C1.81504 6.66387 2.56914 7.225 5.15898 9.10645C5.69473 9.49746 6.59863 10.3201 7.5 10.315C8.40645 10.3227 9.32812 9.48223 9.84355 9.10645C12.4334 7.225 13.185 6.66133 13.7537 6.21953ZM7.5 9.5C8.08906 9.51016 8.93711 8.75859 9.36367 8.44883C12.733 6.00371 12.9895 5.79043 13.7664 5.18105C13.9137 5.0668 14 4.88906 14 4.70117V4.21875C14 3.5459 13.4541 3 12.7812 3H2.21875C1.5459 3 1 3.5459 1 4.21875V4.70117C1 4.88906 1.08633 5.06426 1.23359 5.18105C2.01055 5.78789 2.26699 6.00371 5.63633 8.44883C6.06289 8.75859 6.91094 9.51016 7.5 9.5Z" fill="#02B7A8"/>
</svg>
