<svg width="15" height="15" viewBox="0 0 15 15" fill="none" xmlns="http://www.w3.org/2000/svg">
<g clip-path="url(#clip0_40_15)">
<path d="M6.93476 14.7041C2.77258 8.67015 2 8.05089 2 5.83333C2 2.79575 4.46242 0.333328 7.5 0.333328C10.5376 0.333328 13 2.79575 13 5.83333C13 8.05089 12.2274 8.67015 8.06524 14.7041C7.7921 15.0987 7.20787 15.0986 6.93476 14.7041ZM7.5 8.125C8.76566 8.125 9.79167 7.09899 9.79167 5.83333C9.79167 4.56767 8.76566 3.54166 7.5 3.54166C6.23434 3.54166 5.20833 4.56767 5.20833 5.83333C5.20833 7.09899 6.23434 8.125 7.5 8.125Z" fill="#02B7A8"/>
</g>
<defs>
<clipPath id="clip0_40_15">
<rect width="15" height="15" fill="white"/>
</clipPath>
</defs>
</svg>
