<svg width="15" height="15" viewBox="0 0 15 15" fill="none" xmlns="http://www.w3.org/2000/svg">
<g clip-path="url(#clip0_40_11)">
<path d="M10.486 0H4.06934C3.31022 0 2.69434 0.629883 2.69434 1.40625V13.5938C2.69434 14.3701 3.31022 15 4.06934 15H10.486C11.2451 15 11.861 14.3701 11.861 13.5938V1.40625C11.861 0.629883 11.2451 0 10.486 0ZM7.27767 14.0625C6.77064 14.0625 6.361 13.6436 6.361 13.125C6.361 12.6064 6.77064 12.1875 7.27767 12.1875C7.7847 12.1875 8.19434 12.6064 8.19434 13.125C8.19434 13.6436 7.7847 14.0625 7.27767 14.0625ZM10.486 10.8984C10.486 11.0918 10.3313 11.25 10.1423 11.25H4.41309C4.22402 11.25 4.06934 11.0918 4.06934 10.8984V1.75781C4.06934 1.56445 4.22402 1.40625 4.41309 1.40625H10.1423C10.3313 1.40625 10.486 1.56445 10.486 1.75781V10.8984Z" fill="#02B7A8"/>
</g>
<defs>
<clipPath id="clip0_40_11">
<rect width="15" height="15" fill="white"/>
</clipPath>
</defs>
</svg>
