<svg width="15" height="15" viewBox="0 0 15 15" fill="none" xmlns="http://www.w3.org/2000/svg">
<path d="M13.6293 10.1863L10.7855 8.96749C10.664 8.91571 10.529 8.90481 10.4007 8.9364C10.2725 8.968 10.158 9.04039 10.0745 9.14269L8.81512 10.6814C6.83861 9.74948 5.24798 8.15885 4.31607 6.18234L5.85477 4.92294C5.95727 4.83958 6.02982 4.72509 6.06143 4.59681C6.09304 4.46853 6.082 4.33344 6.02997 4.21199L4.8112 1.36819C4.7541 1.23728 4.65311 1.13039 4.52564 1.06596C4.39817 1.00153 4.25222 0.983602 4.11294 1.01526L1.47227 1.62464C1.338 1.65565 1.2182 1.73126 1.13242 1.83912C1.04665 1.94698 0.999969 2.08073 1 2.21854C1 8.73135 6.2788 14 12.7815 14C12.9193 14.0001 13.0531 13.9534 13.161 13.8677C13.2689 13.7819 13.3446 13.662 13.3756 13.5277L13.985 10.8871C14.0164 10.7471 13.9981 10.6006 13.9332 10.4727C13.8683 10.3448 13.7608 10.2435 13.6293 10.1863V10.1863Z" fill="#02B7A8"/>
</svg>
