<svg width="28" height="22" viewBox="0 0 28 22" fill="none" xmlns="http://www.w3.org/2000/svg">
<path d="M24.3031 5.48279C24.3203 5.72341 24.3203 5.96407 24.3203 6.20469C24.3203 13.5437 18.7344 22 8.52501 22C5.37968 22 2.45782 21.089 0 19.5078C0.446891 19.5594 0.876536 19.5766 1.34062 19.5766C3.93589 19.5766 6.32499 18.7 8.23281 17.2047C5.79218 17.1531 3.74686 15.5547 3.04216 13.3547C3.38594 13.4062 3.72967 13.4406 4.09064 13.4406C4.58906 13.4406 5.08754 13.3718 5.55157 13.2516C3.00783 12.7359 1.09995 10.5016 1.09995 7.80312V7.73439C1.83899 8.14689 2.69844 8.4047 3.60931 8.43904C2.11399 7.44214 1.13434 5.7406 1.13434 3.81559C1.13434 2.78436 1.40929 1.83904 1.89057 1.01404C4.6234 4.38278 8.73123 6.58275 13.3374 6.82341C13.2515 6.41091 13.1999 5.98127 13.1999 5.55157C13.1999 2.49216 15.675 0 18.7515 0C20.3499 0 21.7937 0.670311 22.8078 1.75312C24.0624 1.51251 25.2655 1.04843 26.3312 0.412503C25.9186 1.70159 25.0421 2.78441 23.8906 3.47186C25.0078 3.35161 26.0906 3.04216 27.0874 2.61252C26.3313 3.71247 25.3859 4.69212 24.3031 5.48279Z" fill="#003399"/>
</svg>
